<svg width="96" height="96" viewBox="0 0 96 96" fill="none" xmlns="http://www.w3.org/2000/svg">
<rect width="96" height="96" fill="white"/>
<path d="M79.3924 6.50805L90.0924 11.4579C91.0479 11.8999 91.4213 12.0791 91.697 12.3339C92.0119 12.625 92.2467 12.9923 92.3787 13.4004C92.4942 13.7575 92.5 14.1716 92.5 15.2244V50.9798V84.8866C92.5 86.0165 92.4996 86.8326 92.4473 87.457C92.3951 88.0812 92.2947 88.4483 92.1372 88.7078C91.7447 89.3545 91.0805 89.7887 90.3306 89.8887C90.0298 89.9289 89.6532 89.8736 89.0605 89.6709C88.4675 89.4683 87.7199 89.1412 86.6849 88.6879L75.9849 84.0008C74.9999 83.5694 74.6149 83.3941 74.3304 83.1389C74.0054 82.8472 73.7624 82.4756 73.6257 82.0608C73.506 81.6978 73.5 81.2748 73.5 80.1995V10.2746C73.5 9.12251 73.5004 8.28994 73.5538 7.65385C73.6072 7.01749 73.7098 6.6451 73.8702 6.38415C74.2705 5.73282 74.9469 5.30048 75.7061 5.2106C76.0103 5.17459 76.3913 5.23781 76.9913 5.45654C77.591 5.67518 78.3468 6.02436 79.3924 6.50805Z" fill="#1E82DD" fill-opacity="0.96" stroke="black"/>
<path d="M43.0966 22.8008L55.7966 27.5239C56.8643 27.921 57.2822 28.0835 57.5915 28.3389C57.945 28.6307 58.2115 29.0141 58.3618 29.4472C58.4933 29.8261 58.5 30.2745 58.5 31.4136V85.3095C58.5 86.3809 58.4996 87.1534 58.4503 87.7469C58.4011 88.3391 58.3067 88.6919 58.1572 88.9471C57.7861 89.5806 57.1554 90.0189 56.4324 90.1459C56.1411 90.197 55.7775 90.1626 55.2053 90.0022C54.6318 89.8416 53.9076 89.5727 52.9034 89.1992L40.2034 84.4761C39.1357 84.079 38.7178 83.9165 38.4085 83.6611C38.055 83.3693 37.7885 82.9859 37.6382 82.5528C37.5067 82.1738 37.5 81.7255 37.5 80.5864V26.6905C37.5 25.6191 37.5004 24.8466 37.5497 24.2531C37.5989 23.6609 37.6933 23.3081 37.8428 23.0529C38.2139 22.4194 38.8446 21.9811 39.5676 21.8541C39.8589 21.803 40.2225 21.8374 40.7947 21.9978C41.3682 22.1584 42.0924 22.4273 43.0966 22.8008Z" fill="#1E82DD" fill-opacity="0.96" stroke="black"/>
<path d="M9.54661 36.9259L20.2466 42.4237C21.1431 42.8843 21.4932 43.0702 21.7512 43.3235C22.0461 43.6129 22.2646 43.9709 22.3873 44.3654C22.4946 44.7107 22.5 45.107 22.5 46.1149V66.7293V85.3829C22.5 86.5817 22.4996 87.4491 22.444 88.1098C22.3883 88.7717 22.2811 89.1552 22.1148 89.419C21.6984 90.0795 20.9972 90.5076 20.2194 90.5761C19.9088 90.6034 19.5187 90.5235 18.9044 90.2705C18.2914 90.0181 17.5197 89.622 16.4534 89.0741L5.75339 83.5763C4.8569 83.1157 4.50682 82.9298 4.24878 82.6765C3.95393 82.3871 3.73539 82.0291 3.61273 81.6346C3.50538 81.2893 3.5 80.893 3.5 79.8851V40.6171C3.5 39.4183 3.50042 38.5509 3.55602 37.8902C3.61172 37.2283 3.7189 36.8448 3.88518 36.581C4.30162 35.9205 5.00278 35.4924 5.78064 35.4239C6.09124 35.3966 6.4813 35.4765 7.09555 35.7295C7.70858 35.9819 8.48034 36.378 9.54661 36.9259Z" fill="#1E82DD" fill-opacity="0.96" stroke="black"/>
</svg>
